<?xml version="1.0" standalone="no"?>
<!DOCTYPE svg PUBLIC "-//W3C//DTD SVG 20010904//EN"
 "http://www.w3.org/TR/2001/REC-SVG-20010904/DTD/svg10.dtd">
<svg version="1.0" xmlns="http://www.w3.org/2000/svg"
 width="512.000000pt" height="512.000000pt" viewBox="0 0 512.000000 512.000000"
 preserveAspectRatio="xMidYMid meet">

<g transform="translate(0.000000,512.000000) scale(0.100000,-0.100000)"
fill="#000000" stroke="none">
<path fill="#262626" d="M2413 4751 l-141 -107 -99 -22 c-54 -12 -110 -22 -124 -22 -14 0
-101 15 -193 34 l-168 34 -104 -157 c-103 -154 -105 -157 -192 -212 -86 -56
-89 -57 -257 -89 -93 -18 -175 -38 -181 -44 -6 -6 -26 -87 -44 -181 -31 -164
-34 -173 -83 -248 -60 -93 -77 -108 -240 -216 -80 -53 -127 -90 -127 -101 0
-9 14 -84 30 -165 36 -176 36 -192 7 -315 -23 -94 -25 -98 -130 -238 l-108
-142 108 -142 c105 -140 107 -144 130 -238 12 -52 23 -109 23 -126 0 -17 -15
-106 -34 -198 l-34 -168 157 -104 c154 -103 157 -105 212 -192 56 -86 57 -89
89 -257 18 -93 38 -175 44 -181 6 -6 88 -26 181 -44 164 -31 173 -34 248 -83
93 -60 108 -77 216 -240 50 -75 90 -127 100 -127 9 0 86 14 171 30 85 16 169
30 185 30 17 0 73 -11 125 -23 94 -23 98 -25 238 -130 l142 -108 142 107 c140
106 142 107 241 131 54 12 111 23 126 23 15 0 103 -15 195 -34 l168 -34 104
157 c103 154 105 157 192 212 86 56 89 57 257 89 94 18 175 38 181 44 6 6 26
88 44 181 31 164 34 173 83 248 60 93 77 108 240 216 80 53 127 90 127 101 0
9 -13 84 -30 165 -36 176 -36 192 -7 315 23 94 25 98 130 238 l108 142 -107
142 c-106 140 -107 142 -131 241 -12 54 -23 111 -23 126 0 15 15 103 34 195
l34 168 -157 104 c-154 103 -157 105 -212 192 -56 86 -57 89 -89 257 -18 94
-38 175 -44 181 -6 6 -87 26 -181 44 -164 31 -173 34 -248 83 -93 60 -108 77
-216 240 -53 80 -90 127 -101 127 -9 0 -84 -13 -165 -30 -178 -36 -187 -36
-312 -7 -99 24 -101 25 -241 130 -78 59 -143 107 -144 106 -2 0 -67 -49 -145
-108z m338 -201 c703 -70 1312 -498 1616 -1137 320 -671 236 -1464 -218 -2065
-80 -106 -271 -297 -377 -377 -406 -307 -909 -451 -1403 -401 -468 48 -883
244 -1215 575 -181 180 -296 341 -401 562 -369 775 -196 1704 429 2298 423
403 996 602 1569 545z"/>
<path fill="#262626" d="M2360 4390 c-279 -35 -565 -136 -785 -278 -802 -516 -1083 -1538
-654 -2382 285 -559 825 -931 1451 -999 472 -52 974 98 1344 400 783 640 910
1768 289 2564 -273 350 -688 600 -1123 676 -134 23 -404 33 -522 19z m375
-194 c65 -32 134 -91 161 -138 5 -8 56 -30 114 -47 135 -42 321 -134 435 -215
110 -80 236 -203 326 -319 78 -100 86 -131 44 -172 l-24 -25 -1231 0 c-1211 0
-1230 0 -1250 20 -47 47 -37 83 58 202 190 238 455 420 742 508 58 18 109 40
114 48 24 41 92 102 145 130 79 43 122 52 215 47 66 -3 91 -9 151 -39z m-1227
-1115 c70 -38 101 -70 140 -145 22 -43 26 -64 26 -136 0 -90 -14 -132 -71
-207 l-25 -32 25 -33 c57 -76 71 -118 71 -208 0 -72 -4 -93 -26 -136 -39 -75
-70 -107 -140 -145 l-63 -34 -257 -3 -257 -3 -26 25 -25 25 0 511 0 511 25 25
26 25 257 -3 257 -3 63 -34z m972 -41 l0 -80 -280 0 -280 0 0 -160 0 -160 280
0 280 0 0 -80 0 -80 -280 0 -280 0 0 -160 0 -160 280 0 280 0 0 -80 0 -80
-335 0 -336 0 -24 25 -25 24 0 511 0 511 25 24 24 25 336 0 335 0 0 -80z m800
0 l0 -80 -280 0 -280 0 0 -160 0 -160 280 0 280 0 0 -80 0 -80 -280 0 -280 0
0 -160 0 -160 280 0 280 0 0 -80 0 -80 -335 0 -336 0 -24 25 -25 24 0 511 0
511 25 24 24 25 336 0 335 0 0 -80z m788 41 c70 -38 101 -70 140 -145 22 -43
26 -64 26 -136 0 -73 -4 -92 -27 -137 -52 -101 -145 -167 -252 -179 l-56 -7
69 -33 c78 -38 133 -92 165 -163 17 -36 22 -71 25 -163 l4 -118 -80 0 -80 0
-4 104 c-5 158 -13 166 -278 266 -102 38 -188 70 -192 70 -5 0 -8 -99 -8 -220
l0 -220 -80 0 -80 0 0 535 0 536 25 25 25 25 298 -3 297 -3 63 -34z m-253
-1266 c14 -13 25 -36 25 -51 0 -39 -112 -185 -234 -301 -183 -177 -392 -298
-629 -363 -40 -11 -75 -27 -81 -37 -26 -48 -95 -106 -164 -141 -72 -35 -81
-37 -172 -37 -91 0 -100 2 -172 37 -69 34 -138 93 -164 141 -5 9 -47 27 -99
42 -177 51 -362 147 -509 265 -144 114 -336 341 -336 397 0 13 11 35 25 48
l24 25 1231 0 1231 0 24 -25z"/>
<path fill="#262626" d="M2481 4066 c-46 -16 -105 -68 -132 -115 -25 -44 -39 -53 -135 -77
-215 -53 -438 -180 -603 -344 l-86 -85 518 -3 c284 -1 750 -1 1035 0 l517 3
-75 76 c-166 168 -371 287 -600 350 -113 31 -125 37 -149 79 -59 105 -183 155
-290 116z"/>
<path fill="#262626" d="M1040 2800 l0 -161 189 3 c207 3 216 6 265 72 29 39 29 133 0 172
-49 66 -58 69 -265 72 l-189 3 0 -161z"/>
<path fill="#262626" d="M1040 2320 l0 -161 189 3 c207 3 216 6 265 72 29 39 29 133 0 172
-49 66 -58 69 -265 72 l-189 3 0 -161z"/>
<path fill="#262626" d="M3520 2800 l0 -161 229 3 c252 3 255 4 305 72 29 39 29 133 0 172
-50 68 -53 69 -305 72 l-229 3 0 -161z"/>
<path fill="#262626" d="M1539 1661 c18 -33 163 -160 254 -222 48 -34 129 -80 180 -104 87
-41 237 -95 264 -95 38 0 91 -34 112 -70 97 -174 325 -170 427 7 20 37 21 37
129 68 177 50 328 122 457 217 87 65 180 149 209 189 l20 29 -1031 0 c-1009 0
-1030 0 -1021 -19z"/>
</g>
</svg>
